<?xml version="1.0" encoding="UTF-8"?>
<svg width="14px" height="8px" viewBox="0 0 14 8" version="1.1" xmlns="http://www.w3.org/2000/svg" xmlns:xlink="http://www.w3.org/1999/xlink">
    <!-- Generator: Sketch 53.2 (72643) - https://sketchapp.com -->
    <title>arrow-small copy</title>
    <desc>Created with Sketch.</desc>
    <g id="Page-1" stroke="none" stroke-width="1" fill="none" fill-rule="evenodd">
        <g id="1440" transform="translate(-306.000000, -431.000000)">
            <g id="arrow-small-copy" transform="translate(313.000000, 435.000000) rotate(90.000000) translate(-313.000000, -435.000000) translate(301.000000, 423.000000)">
                <rect id="Rectangle" x="0" y="0" width="24" height="24"></rect>
                <path d="M9,19 C8.73419702,19.0015368 8.47871883,18.8971865 8.29,18.71 C8.10068735,18.5222334 7.99420168,18.2666375 7.99420168,18 C7.99420168,17.7333625 8.10068735,17.4777666 8.29,17.29 L13.59,12 L8.29,6.71 C7.89787784,6.31787783 7.89787784,5.68212218 8.29000001,5.29000001 C8.68212218,4.89787784 9.31787783,4.89787784 9.71,5.29 L15.71,11.29 C15.8993127,11.4777666 16.0057983,11.7333625 16.0057983,12 C16.0057983,12.2666375 15.8993127,12.5222334 15.71,12.71 L9.71,18.71 C9.52128117,18.8971865 9.26580298,19.0015368 9,19 Z" id="Path" fill="#000000" fill-rule="nonzero"></path>
            </g>
        </g>
    </g>
</svg>